<mxfile host="app.diagrams.net" modified="2020-09-07T03:50:04.965Z" agent="5.0 (Windows NT 10.0; Win64; x64) AppleWebKit/537.36 (KHTML, like Gecko) Chrome/85.0.4183.83 Safari/537.36" etag="3SdDX9xrI7bTEkXrySBc" version="13.6.6" type="github">
  <diagram id="5TzBVVq_Y8J2KCMgCbGa" name="Page-1">
    <mxGraphModel dx="782" dy="437" grid="1" gridSize="10" guides="1" tooltips="1" connect="1" arrows="1" fold="1" page="1" pageScale="1" pageWidth="827" pageHeight="1169" math="0" shadow="0">
      <root>
        <mxCell id="0" />
        <mxCell id="1" parent="0" />
        <mxCell id="SYNIxG4zdUOY6J0u-KkZ-4" value="" style="rounded=0;whiteSpace=wrap;html=1;fillColor=#d5e8d4;strokeColor=#82b366;" vertex="1" parent="1">
          <mxGeometry x="300" y="100" width="330" height="250" as="geometry" />
        </mxCell>
        <mxCell id="SYNIxG4zdUOY6J0u-KkZ-9" style="edgeStyle=orthogonalEdgeStyle;rounded=0;orthogonalLoop=1;jettySize=auto;html=1;exitX=1;exitY=0.25;exitDx=0;exitDy=0;entryX=0.006;entryY=0.402;entryDx=0;entryDy=0;entryPerimeter=0;" edge="1" parent="1" source="SYNIxG4zdUOY6J0u-KkZ-1" target="SYNIxG4zdUOY6J0u-KkZ-3">
          <mxGeometry relative="1" as="geometry" />
        </mxCell>
        <mxCell id="SYNIxG4zdUOY6J0u-KkZ-11" style="edgeStyle=orthogonalEdgeStyle;rounded=0;orthogonalLoop=1;jettySize=auto;html=1;exitX=1;exitY=0.75;exitDx=0;exitDy=0;entryX=-0.006;entryY=0.594;entryDx=0;entryDy=0;entryPerimeter=0;endArrow=none;endFill=0;startArrow=classic;startFill=1;" edge="1" parent="1" source="SYNIxG4zdUOY6J0u-KkZ-1" target="SYNIxG4zdUOY6J0u-KkZ-3">
          <mxGeometry relative="1" as="geometry" />
        </mxCell>
        <mxCell id="SYNIxG4zdUOY6J0u-KkZ-1" value="ui.Window" style="rounded=0;whiteSpace=wrap;html=1;fillColor=#fff2cc;strokeColor=#d6b656;" vertex="1" parent="1">
          <mxGeometry x="340" y="190" width="110" height="70" as="geometry" />
        </mxCell>
        <mxCell id="SYNIxG4zdUOY6J0u-KkZ-2" value="" style="rounded=0;whiteSpace=wrap;html=1;fillColor=#dae8fc;strokeColor=#6c8ebf;" vertex="1" parent="1">
          <mxGeometry x="60" y="100" width="190" height="250" as="geometry" />
        </mxCell>
        <mxCell id="SYNIxG4zdUOY6J0u-KkZ-3" value="bindings" style="rounded=0;whiteSpace=wrap;html=1;fillColor=#fff2cc;strokeColor=#d6b656;" vertex="1" parent="1">
          <mxGeometry x="490" y="135" width="110" height="180" as="geometry" />
        </mxCell>
        <mxCell id="SYNIxG4zdUOY6J0u-KkZ-5" value="Flutter&amp;nbsp;" style="text;html=1;strokeColor=none;fillColor=none;align=center;verticalAlign=middle;whiteSpace=wrap;rounded=0;fontStyle=1;fontSize=14;" vertex="1" parent="1">
          <mxGeometry x="320" y="115" width="40" height="20" as="geometry" />
        </mxCell>
        <mxCell id="SYNIxG4zdUOY6J0u-KkZ-13" value="" style="endArrow=classic;html=1;exitX=1;exitY=0.25;exitDx=0;exitDy=0;" edge="1" parent="1" source="SYNIxG4zdUOY6J0u-KkZ-18">
          <mxGeometry width="50" height="50" relative="1" as="geometry">
            <mxPoint x="380" y="250" as="sourcePoint" />
            <mxPoint x="340" y="207" as="targetPoint" />
          </mxGeometry>
        </mxCell>
        <mxCell id="SYNIxG4zdUOY6J0u-KkZ-14" value="" style="endArrow=classic;html=1;" edge="1" parent="1">
          <mxGeometry width="50" height="50" relative="1" as="geometry">
            <mxPoint x="340" y="249" as="sourcePoint" />
            <mxPoint x="210" y="250" as="targetPoint" />
          </mxGeometry>
        </mxCell>
        <mxCell id="SYNIxG4zdUOY6J0u-KkZ-15" value="Native Engine" style="text;html=1;strokeColor=none;fillColor=none;align=center;verticalAlign=middle;whiteSpace=wrap;rounded=0;fontStyle=1;fontSize=14;" vertex="1" parent="1">
          <mxGeometry x="70" y="115" width="100" height="20" as="geometry" />
        </mxCell>
        <mxCell id="SYNIxG4zdUOY6J0u-KkZ-18" value="window.cc" style="rounded=0;whiteSpace=wrap;html=1;fontSize=14;fillColor=#f8cecc;strokeColor=#b85450;" vertex="1" parent="1">
          <mxGeometry x="97.5" y="190" width="112.5" height="70" as="geometry" />
        </mxCell>
      </root>
    </mxGraphModel>
  </diagram>
</mxfile>
